<?xml version="1.0" encoding="utf-8"?>
<!-- Generator: Adobe Illustrator 25.1.0, SVG Export Plug-In . SVG Version: 6.00 Build 0)  -->
<svg version="1.1" id="Capa_1" xmlns="http://www.w3.org/2000/svg" xmlns:xlink="http://www.w3.org/1999/xlink" x="0px" y="0px"
	 viewBox="0 0 86 86" style="enable-background:new 0 0 86 86;" xml:space="preserve">
<style type="text/css">
	.st0{fill:#FFFFFF;}
</style>
<g>
	<g>
		<path class="st0" d="M5.9,35.2c-1.4-1.3-3.5-1.3-4.9,0s-1.4,3.5,0,4.8l39.6,39.2c1.4,1.3,3.5,1.3,4.9,0L85,40
			c1.4-1.3,1.4-3.5,0-4.8s-3.5-1.3-4.9,0L43,70.9L5.9,35.2z"/>
	</g>
	<g>
		<path class="st0" d="M5.9,6.8C4.5,5.5,2.4,5.5,1,6.8s-1.4,3.5,0,4.8l39.6,39.2c1.4,1.3,3.5,1.3,4.9,0L85,11.6
			c1.4-1.3,1.4-3.5,0-4.8s-3.5-1.3-4.9,0L43,42.5L5.9,6.8z"/>
	</g>
</g>
</svg>
