<svg id="Layer_1" data-name="Layer 1" xmlns="http://www.w3.org/2000/svg" viewBox="0 0 912 265.09"><path d="M131.72,435.41l31.09,46.37Q175.74,501,182,506.08t15.86,5.61v3.95H135.67v-3.95q6.2-.1,9.19-1.28a8.74,8.74,0,0,0,3.68-2.94,6.7,6.7,0,0,0,1.45-4,13.44,13.44,0,0,0-1-4.91,83.57,83.57,0,0,0-5.88-9.4L118.58,452,88.23,490.86q-4.8,6.19-5.77,8.28a10.22,10.22,0,0,0-1,4.32,6.9,6.9,0,0,0,2.89,5.67q2.88,2.24,11,2.56v3.95H44v-3.95a31.49,31.49,0,0,0,9.4-2.24A54.51,54.51,0,0,0,66,502q6-4.71,13.68-14.43l34.18-43.16L85.35,402.61q-11.65-17-19.77-22.28a35.44,35.44,0,0,0-18.7-5.61v-4h67v4q-8.53.31-11.69,2.78C100.07,379.14,99,381,99,383q0,3.94,5.13,11.54l22.22,33.22,25.75-32.58a56.28,56.28,0,0,0,5.51-7.91,10.16,10.16,0,0,0,1-4.38,6.42,6.42,0,0,0-1.28-3.95,8.58,8.58,0,0,0-4.06-3.16q-2.46-.9-10.15-1v-4h51.39v4a30.25,30.25,0,0,0-9.94,1.92A40,40,0,0,0,174,383.27q-4.82,4.17-13.57,15.38Z" transform="translate(-44 -367.45)"/><path d="M300.53,467.14h-56.1L234.61,490Q231,498.45,231,502.61a7.31,7.31,0,0,0,3.15,5.82q3.16,2.52,13.63,3.26v3.95H202.13v-3.95q9.08-1.6,11.75-4.17,5.44-5.11,12.07-20.83l51-119.24h3.74L331.08,488q6.09,14.53,11.06,18.86T356,511.69v3.95H298.82v-3.95c5.77-.28,9.67-1.25,11.7-2.88a7.45,7.45,0,0,0,3-6q0-4.69-4.27-14.85Zm-3-7.91L273,400.68l-25.21,58.55Z" transform="translate(-44 -367.45)"/><path d="M355.55,370.77h39.32l88.57,108.65V395.87q0-13.35-3-16.66-4-4.48-12.5-4.49h-5v-4h50.43v4h-5.13q-9.19,0-13,5.56-2.34,3.41-2.35,15.59V518H489L393.48,401.32v89.22q0,13.35,2.88,16.66,4.06,4.5,12.5,4.49H414v3.95H363.56v-3.95h5q9.3,0,13.15-5.55,2.34-3.42,2.35-15.6V389.78q-6.31-7.36-9.57-9.72a34.9,34.9,0,0,0-9.56-4.38,34.08,34.08,0,0,0-9.4-1Z" transform="translate(-44 -367.45)"/><path d="M520.19,515.64v-3.95h5.45q9.2,0,13-5.88Q541,502.29,541,490V396.41q0-13.57-3-17-4.17-4.69-12.4-4.7h-5.45v-4h59q32.48,0,49.41,7.37t27.25,24.57q10.3,17.21,10.31,39.75,0,30.23-18.38,50.53-20.62,22.65-62.82,22.65Zm41.35-10.47a108.85,108.85,0,0,0,22.76,3q24.78,0,41.13-17.42t16.35-47.22q0-30-16.35-47.33t-42-17.31a90.49,90.49,0,0,0-21.9,3.1Z" transform="translate(-44 -367.45)"/><path d="M720.2,378.67v57.27H752q12.39,0,16.56-3.74,5.55-4.92,6.2-17.31h4v50.43h-4q-1.5-10.57-3-13.57a13.41,13.41,0,0,0-6.31-5.87q-4.38-2.14-13.46-2.14H720.2V491.5q0,9.62.86,11.7a6.69,6.69,0,0,0,3,3.31q2.13,1.23,8.12,1.23h24.57q12.28,0,17.84-1.71a26.68,26.68,0,0,0,10.69-6.73q6.62-6.63,13.57-20h4.27l-12.5,36.32H679v-3.95h5.13a20.28,20.28,0,0,0,9.72-2.46,9,9,0,0,0,4.65-5.12q1.23-3.42,1.23-14V396q0-13.78-2.78-17-3.85-4.28-12.82-4.27H679v-4H790.61l1.6,31.73H788q-2.24-11.43-5-15.71a17,17,0,0,0-8.07-6.51q-4.28-1.61-15.06-1.61Z" transform="translate(-44 -367.45)"/><path d="M956,515.64H917.32l-49-67.73c-3.63.14-6.59.21-8.86.21-.93,0-1.93,0-3-.05s-2.17-.09-3.31-.16V490q0,13.68,3,17,4.06,4.69,12.18,4.7H874v3.95H811.87v-3.95h5.45q9.2,0,13.14-6,2.25-3.31,2.24-15.71V396.41q0-13.68-3-17c-2.77-3.13-6.91-4.7-12.39-4.7h-5.45v-4h52.78q23.08,0,34,3.36a39,39,0,0,1,18.59,12.4,32.23,32.23,0,0,1,7.64,21.52,33.8,33.8,0,0,1-8.71,23.19q-8.7,9.83-27,13.89l29.92,41.56q10.26,14.31,17.63,19t19.23,6ZM853.11,441.18c1.35,0,2.53,0,3.53.05s1.81,0,2.45,0q20.73,0,31.26-9a28.76,28.76,0,0,0,10.52-22.87q0-13.56-8.49-22.06t-22.49-8.49a93.62,93.62,0,0,0-16.78,2Z" transform="translate(-44 -367.45)"/><path d="M317.22,583.71H299v5.7c0,16.25-5,32.76-27.31,42.8a33.69,33.69,0,0,0-4.34-4.26C289,618.59,293,603.45,293,589.5v-5.79H265.91v21h-6v-21H243.2v-5.78h16.67V559.3l8.17.51a2.2,2.2,0,0,1-2.13,1.78v16.34H293V558.27l8.08.51a2.15,2.15,0,0,1-2,1.62v17.53h18.21Zm-13.11-22.46a60.71,60.71,0,0,1,10.13,12.08l-3.07,2.3a64,64,0,0,0-9.95-12Zm8.43-7.06a56.37,56.37,0,0,1,10.21,12.17l-3,2.29a68.22,68.22,0,0,0-10.13-12.08Z" transform="translate(-44 -367.45)"/><path d="M391.3,564.91c8.85,2.81,19.06,7.23,25.36,11.57l-3.24,5.36C407.3,577.5,397.26,573,388.58,570Zm-.34,59c30.2-9.36,50.28-26.29,60.49-49.86A32.46,32.46,0,0,0,457,577.5c-10.63,23.31-31.39,41.43-60.23,51a2.81,2.81,0,0,1-1.19,2Z" transform="translate(-44 -367.45)"/><path d="M606.78,572.82c-.08.51-.51.68-1,.94a112.08,112.08,0,0,1-12.33,28.07c3.66,2.13,8.17,4.77,11.31,7l-3.57,5.53A123.1,123.1,0,0,0,589.85,607a77.42,77.42,0,0,1-30.54,25.53,17.76,17.76,0,0,0-4.59-4.51A76.54,76.54,0,0,0,584.58,604,141,141,0,0,0,565.52,595l3.32-4.68A162.64,162.64,0,0,1,588.15,599a88.77,88.77,0,0,0,10.21-22.55H570.29c-5.45,9.19-12.17,17.53-19.15,23.23a44,44,0,0,0-4.76-3.83c11.06-8.51,20.84-23.4,26-38l7.91,2.3a2.12,2.12,0,0,1-2.38,1.11,92.16,92.16,0,0,1-4.34,9.44h27.56l.77-.26ZM599,555.89a64.32,64.32,0,0,1,11.31,11.91L607,570.44a69.11,69.11,0,0,0-11.15-11.91Zm10.89-3.15a68.76,68.76,0,0,1,11.57,11.74L618.1,567c-2.3-3.49-7.57-8.77-11.23-11.66Z" transform="translate(-44 -367.45)"/><path d="M756.08,565.76a2.16,2.16,0,0,1-1.11.77,72.83,72.83,0,0,1-20.16,27.22,36.77,36.77,0,0,0-5.19-3.49c7.83-5.7,14.12-14,16.93-21.1H685.63v-5.78h64.15l.94-.43ZM722.9,581.24c-.09.68-.85,1.28-2,1.45-2.47,20.08-9.36,39.22-26.88,49.34a43.09,43.09,0,0,0-5-3.91c17.35-9.53,23.56-27.31,25.61-47.81Z" transform="translate(-44 -367.45)"/></svg>